<svg xmlns="http://www.w3.org/2000/svg" xmlns:xlink="http://www.w3.org/1999/xlink" viewBox="0 0 387.55 262.14"><defs><style>.cls-1{fill:url(#Gradiente_sem_nome_14);}.cls-2{fill:#21a637;}.cls-3{fill:#3c3c3b;}</style><linearGradient id="Gradiente_sem_nome_14" x1="84.98" y1="63.17" x2="314.17" y2="63.17" gradientUnits="userSpaceOnUse"><stop offset="0" stop-color="#21a637"/><stop offset="0.53" stop-color="#9da638"/><stop offset="1" stop-color="#21a637"/></linearGradient></defs><g id="Camada_2" data-name="Camada 2"><g id="DSE-LOGO"><path class="cls-1" d="M265.81,93.71v-15a3.4,3.4,0,0,1,3.4-3.39h19.84a16.51,16.51,0,0,0,16.5-16.51V48.36H269.21a3.4,3.4,0,0,1-3.4-3.39V32.64a3.4,3.4,0,0,1,3.4-3.4H312.3V17.7A15.44,15.44,0,0,0,296.86,2.25L242.7,4.51a49.93,49.93,0,0,1-16.1-2.12A58.76,58.76,0,0,0,210.19,0a52.78,52.78,0,0,0-25,5.94,38.68,38.68,0,0,1-33,1.7C143.18,4,132.65,2.25,121,2.25H106a21,21,0,0,0-21,21V124.1h37.87a78.13,78.13,0,0,0,24.86-3.72,48.46,48.46,0,0,1,33.09,1,71.12,71.12,0,0,0,25.64,5,63,63,0,0,0,17.82-2.43,76.38,76.38,0,0,1,25.29-3l64.62,3.17V113.3A16.19,16.19,0,0,0,298,97.1H269.21A3.4,3.4,0,0,1,265.81,93.71ZM119.1,98.23h-1.88V28.12h1.88c17.62,0,31.49,6,31.49,34.49S136.72,98.23,119.1,98.23Zm88.09.37c-7.87,0-17.18-3.73-25.16-9.32a3.47,3.47,0,0,1-1.38-3.76,73.3,73.3,0,0,0,2.27-11.58,3.5,3.5,0,0,1,4.93-2.79l1.54.65,15.18,6.37c10.31,4.12,16.49,6,16.49,11.81C221.06,95.41,216.94,98.6,207.19,98.6ZM230.25,54l-14.81-5.81c-11.06-4.32-18-6.38-18-12.19,0-5.43,4.87-8.25,12.74-8.25,8.24,0,14.92,2.55,22.32,7.43a2.4,2.4,0,0,1,1.06,2V51.77A2.41,2.41,0,0,1,230.28,54Z" transform="translate(-5.57)"/><path class="cls-2" d="M5.57,159.27H20.44c15.32,0,25.85,7.12,25.85,24.93s-10.53,25.39-25.08,25.39H5.57ZM19.66,198.9c7.28,0,13-2.94,13-14.7S26.94,170,19.66,170h-.77v29Z" transform="translate(-5.57)"/><path class="cls-2" d="M52.64,198.59c0-8.05,6.19-12.54,21-14.08-.31-2.79-2-4-5.42-4-2.78,0-5.73,1.08-9.75,3.25l-4.65-8.67a32.66,32.66,0,0,1,17-5.11C81,170,87,175.37,87,188.07v21.52H76.17l-.93-3.72h-.31c-3.1,2.79-6.5,4.64-10.68,4.64C57,210.51,52.64,204.94,52.64,198.59Zm21-.92V192.4c-6.35.93-8.36,2.94-8.36,5.11,0,1.78,1.24,2.79,3.56,2.79C71.06,200.3,72.3,199.21,73.69,197.67Z" transform="translate(-5.57)"/><path class="cls-2" d="M92.58,205.1l5.88-8.21c3.56,2.63,6.73,3.87,9.44,3.87s3.87-.77,3.87-2.32c0-2-3.56-2.94-7.43-4.49-4.49-1.78-9.75-5.11-9.75-11.46,0-7.58,6.19-12.54,15.33-12.54a23,23,0,0,1,14.24,5.11l-5.88,7.9c-2.79-2-5.5-3.25-7.9-3.25-2.25,0-3.41.62-3.41,2.16,0,2,3.41,2.79,7.28,4.18,4.64,1.71,9.91,4.65,9.91,11.62,0,7.27-5.73,12.84-16.57,12.84A25.79,25.79,0,0,1,92.58,205.1Z" transform="translate(-5.57)"/><path class="cls-2" d="M130.66,155.71H144v12.54l-.62,6.66c2.64-2.32,6.35-5,11.62-5,8.51,0,12.07,6.2,12.07,15.79v23.85H153.73V187.45c0-5-1.24-6.19-3.87-6.19S146,182.34,144,184.2v25.39H130.66Z" transform="translate(-5.57)"/><path class="cls-3" d="M173.3,202.94l3.48-3.94A19.87,19.87,0,0,0,191,205.44c6.95,0,11.14-3.53,11.14-8.75,0-5.49-3.8-7.23-8.65-9.37L186.11,184c-4.66-2-10.3-5.49-10.3-13,0-7.68,6.66-13.26,15.7-13.26a20.64,20.64,0,0,1,14.78,6.25l-3.09,3.71a16.23,16.23,0,0,0-11.69-4.89c-5.95,0-9.91,3.06-9.91,7.85,0,5.15,4.59,7.09,8.51,8.76l7.36,3.21c5.84,2.53,10.53,5.95,10.53,13.56,0,8-6.58,14.26-17.06,14.26A23.9,23.9,0,0,1,173.3,202.94Z" transform="translate(-5.57)"/><path class="cls-3" d="M216.8,198.3V176.71h-5.65v-4.28l5.89-.36.68-10.6h4.72v10.6h10.34v4.64H222.44v21.73c0,4.64,1.41,7.44,5.94,7.44a12.94,12.94,0,0,0,4.38-1l1.15,4.29a22.15,22.15,0,0,1-6.76,1.39C219.36,210.51,216.8,205.57,216.8,198.3Z" transform="translate(-5.57)"/><path class="cls-3" d="M237.33,200c0-8.22,7.17-12.27,23.33-14,0-5.06-1.58-10.08-8-10.08-4.51,0-8.54,2.16-11.37,4.11L239,176c3.26-2.17,8.51-4.9,14.54-4.9,9.09,0,12.75,6.18,12.75,15.2v23.25h-4.67l-.49-4.58h-.2c-3.64,3-7.91,5.5-12.64,5.5C242.1,210.51,237.33,206.78,237.33,200Zm23.33.75v-11c-13.27,1.57-17.78,4.78-17.78,9.87,0,4.54,3.08,6.35,6.92,6.35S256.78,204.08,260.66,200.7Z" transform="translate(-5.57)"/><path class="cls-3" d="M278.58,198.3V176.71h-5.65v-4.28l5.88-.36.68-10.6h4.72v10.6h10.33v4.64H284.21v21.73c0,4.64,1.41,7.44,5.94,7.44a12.88,12.88,0,0,0,4.38-1l1.15,4.29a22.21,22.21,0,0,1-6.76,1.39C281.13,210.51,278.58,205.57,278.58,198.3Z" transform="translate(-5.57)"/><path class="cls-3" d="M301.94,160.18a4.08,4.08,0,0,1,8.15,0,4.08,4.08,0,0,1-8.15,0Zm1.2,11.89h5.63v37.52h-5.63Z" transform="translate(-5.57)"/><path class="cls-3" d="M319,190.88c0-12.52,8.09-19.74,17.24-19.74s17.25,7.22,17.25,19.74-8.1,19.63-17.25,19.63S319,203.3,319,190.88Zm28.66,0c0-8.91-4.69-15-11.42-15s-11.41,6.1-11.41,15,4.68,14.9,11.41,14.9S347.66,199.8,347.66,190.88Z" transform="translate(-5.57)"/><path class="cls-3" d="M363.67,172.07h4.67l.5,5.51h.2c3.64-3.59,7.5-6.44,12.66-6.44,7.87,0,11.43,5,11.43,14.6v23.85H387.5V186.47c0-7.22-2.22-10.41-7.45-10.41-4,0-6.79,2.06-10.75,6.08v27.45h-5.63Z" transform="translate(-5.57)"/><path class="cls-3" d="M108.5,243.35c0-7.16,4.23-11.55,10.14-11.55a8.49,8.49,0,0,1,6.33,2.72l-1.39,1.65A6.36,6.36,0,0,0,118.7,234c-4.65,0-7.6,3.56-7.6,9.27s2.73,9.38,7.57,9.38a6.34,6.34,0,0,0,4.26-1.4v-6.09h-4.87v-2.09h7.18v9.23a9.31,9.31,0,0,1-6.8,2.58C112.6,254.9,108.5,250.55,108.5,243.35Z" transform="translate(-5.57)"/><path class="cls-3" d="M129.36,250.26c0-3.59,3.14-5.37,10.22-6.15,0-2.21-.69-4.41-3.51-4.41a9,9,0,0,0-5,1.8l-1-1.71a11.79,11.79,0,0,1,6.37-2.15c4,0,5.59,2.71,5.59,6.66v10.19H140l-.22-2h-.09a8.93,8.93,0,0,1-5.53,2.42C131.45,254.9,129.36,253.26,129.36,250.26Zm10.22.33v-4.82c-5.82.69-7.79,2.1-7.79,4.33,0,2,1.35,2.78,3,2.78S137.88,252.08,139.58,250.59Z" transform="translate(-5.57)"/><path class="cls-3" d="M147.4,238.05h2l.22,2.42h.09c1.45-1.58,3.2-2.83,5.13-2.83a4.32,4.32,0,0,1,4.54,3.19c1.75-1.9,3.49-3.19,5.46-3.19,3.35,0,5,2.2,5,6.4v10.45H167.4V244.36c0-3.17-1-4.56-3.21-4.56-1.34,0-2.73.88-4.32,2.66v12H157.4V244.36c0-3.17-1-4.56-3.21-4.56-1.29,0-2.72.88-4.32,2.66v12H147.4Z" transform="translate(-5.57)"/><path class="cls-3" d="M174.12,246.29c0-5.35,3.58-8.65,7.34-8.65,4.12,0,6.49,3,6.49,7.69a8.17,8.17,0,0,1-.12,1.49H176.58c.16,3.65,2.36,6.08,5.64,6.08a7.16,7.16,0,0,0,4.17-1.35l.9,1.66a9.48,9.48,0,0,1-5.36,1.69C177.59,254.9,174.12,251.69,174.12,246.29ZM185.75,245c0-3.52-1.59-5.39-4.25-5.39-2.43,0-4.61,2-4.94,5.39Z" transform="translate(-5.57)"/><path class="cls-3" d="M199.09,232.2h12.68v2.14H201.61v7.35h8.56v2.13h-8.56v8.53h10.5v2.14h-13Z" transform="translate(-5.57)"/><path class="cls-3" d="M216.62,238.05h2l.22,2.41H219c1.6-1.57,3.29-2.82,5.55-2.82,3.45,0,5,2.2,5,6.4v10.45h-2.47V244.36c0-3.17-1-4.56-3.26-4.56-1.75,0-3,.9-4.71,2.66v12h-2.47Z" transform="translate(-5.57)"/><path class="cls-3" d="M233.76,257.7a4.72,4.72,0,0,1,2.42-3.78v-.14a3,3,0,0,1-1.47-2.68,3.91,3.91,0,0,1,1.81-3v-.14a5.8,5.8,0,0,1,3.95-10.28,6.56,6.56,0,0,1,2.29.41h5.69V240H245a4.93,4.93,0,0,1,1.45,3.57,5.62,5.62,0,0,1-5.95,5.72,5.78,5.78,0,0,1-2.51-.59,2.54,2.54,0,0,0-1.12,2c0,1.08.68,1.87,2.94,1.87h3.28c3.79,0,5.66,1.19,5.66,3.89,0,3-3.18,5.65-8.17,5.65C236.49,262.14,233.76,260.51,233.76,257.7Zm12.53-.86c0-1.59-1.19-2.15-3.43-2.15h-3a9.22,9.22,0,0,1-2.11-.26,3.66,3.66,0,0,0-1.8,2.93c0,1.85,1.84,3,4.94,3C244.16,260.39,246.29,258.64,246.29,256.84Zm-2.14-13.36a3.69,3.69,0,1,0-7.36,0,3.7,3.7,0,1,0,7.36,0Z" transform="translate(-5.57)"/><path class="cls-3" d="M251.47,232.84a1.79,1.79,0,0,1,3.57,0,1.79,1.79,0,0,1-3.57,0Zm.52,5.21h2.47v16.44H252Z" transform="translate(-5.57)"/><path class="cls-3" d="M260.2,238.05h2.05l.21,2.41h.09c1.6-1.57,3.29-2.82,5.55-2.82,3.45,0,5,2.2,5,6.4v10.45h-2.47V244.36c0-3.17-1-4.56-3.26-4.56-1.75,0-3,.9-4.71,2.66v12H260.2Z" transform="translate(-5.57)"/><path class="cls-3" d="M277.36,246.29c0-5.35,3.57-8.65,7.33-8.65,4.12,0,6.49,3,6.49,7.69a8.17,8.17,0,0,1-.12,1.49H279.81c.16,3.65,2.37,6.08,5.64,6.08a7.16,7.16,0,0,0,4.17-1.35l.91,1.66a9.52,9.52,0,0,1-5.37,1.69C280.82,254.9,277.36,251.69,277.36,246.29ZM289,245c0-3.52-1.58-5.39-4.25-5.39-2.43,0-4.6,2-4.94,5.39Z" transform="translate(-5.57)"/></g></g></svg>