<svg width="700" height="400" viewBox="0 0 700 400" fill="none" xmlns="http://www.w3.org/2000/svg">
<rect width="700" height="400" fill="#2B2B2B"/>
<path d="M37 80.9V41H54.271C57.843 41 60.921 41.589 63.505 42.767C66.089 43.907 68.084 45.56 69.49 47.726C70.896 49.892 71.599 52.476 71.599 55.478C71.599 58.442 70.896 61.007 69.49 63.173C68.084 65.301 66.089 66.935 63.505 68.075C60.921 69.215 57.843 69.785 54.271 69.785H42.13L46.234 65.738V80.9H37ZM62.365 80.9L52.39 66.422H62.251L72.34 80.9H62.365ZM46.234 66.764L42.13 62.432H53.758C56.608 62.432 58.736 61.824 60.142 60.608C61.548 59.354 62.251 57.644 62.251 55.478C62.251 53.274 61.548 51.564 60.142 50.348C58.736 49.132 56.608 48.524 53.758 48.524H42.13L46.234 44.135V66.764Z" fill="#F7F7F7"/>
<path d="M92.88 81.356C89.612 81.356 86.705 80.672 84.159 79.304C81.651 77.936 79.656 76.074 78.174 73.718C76.73 71.324 76.008 68.607 76.008 65.567C76.008 62.489 76.73 59.772 78.174 57.416C79.656 55.022 81.651 53.16 84.159 51.83C86.705 50.462 89.612 49.778 92.88 49.778C96.11 49.778 98.998 50.462 101.544 51.83C104.09 53.16 106.085 55.003 107.529 57.359C108.973 59.715 109.695 62.451 109.695 65.567C109.695 68.607 108.973 71.324 107.529 73.718C106.085 76.074 104.09 77.936 101.544 79.304C98.998 80.672 96.11 81.356 92.88 81.356ZM92.88 74.06C94.362 74.06 95.692 73.718 96.87 73.034C98.048 72.35 98.979 71.381 99.663 70.127C100.347 68.835 100.689 67.315 100.689 65.567C100.689 63.781 100.347 62.261 99.663 61.007C98.979 59.753 98.048 58.784 96.87 58.1C95.692 57.416 94.362 57.074 92.88 57.074C91.398 57.074 90.068 57.416 88.89 58.1C87.712 58.784 86.762 59.753 86.04 61.007C85.356 62.261 85.014 63.781 85.014 65.567C85.014 67.315 85.356 68.835 86.04 70.127C86.762 71.381 87.712 72.35 88.89 73.034C90.068 73.718 91.398 74.06 92.88 74.06Z" fill="#F7F7F7"/>
<path d="M130.459 81.356C127.153 81.356 124.208 80.691 121.624 79.361C119.04 77.993 117.007 76.112 115.525 73.718C114.081 71.324 113.359 68.607 113.359 65.567C113.359 62.489 114.081 59.772 115.525 57.416C117.007 55.022 119.04 53.16 121.624 51.83C124.208 50.462 127.153 49.778 130.459 49.778C133.689 49.778 136.501 50.462 138.895 51.83C141.289 53.16 143.056 55.079 144.196 57.587L137.299 61.292C136.501 59.848 135.494 58.784 134.278 58.1C133.1 57.416 131.808 57.074 130.402 57.074C128.882 57.074 127.514 57.416 126.298 58.1C125.082 58.784 124.113 59.753 123.391 61.007C122.707 62.261 122.365 63.781 122.365 65.567C122.365 67.353 122.707 68.873 123.391 70.127C124.113 71.381 125.082 72.35 126.298 73.034C127.514 73.718 128.882 74.06 130.402 74.06C131.808 74.06 133.1 73.737 134.278 73.091C135.494 72.407 136.501 71.324 137.299 69.842L144.196 73.604C143.056 76.074 141.289 77.993 138.895 79.361C136.501 80.691 133.689 81.356 130.459 81.356Z" fill="#F7F7F7"/>
<path d="M163.518 81.356C160.25 81.356 157.343 80.672 154.797 79.304C152.289 77.936 150.294 76.074 148.812 73.718C147.368 71.324 146.646 68.607 146.646 65.567C146.646 62.489 147.368 59.772 148.812 57.416C150.294 55.022 152.289 53.16 154.797 51.83C157.343 50.462 160.25 49.778 163.518 49.778C166.748 49.778 169.636 50.462 172.182 51.83C174.728 53.16 176.723 55.003 178.167 57.359C179.611 59.715 180.333 62.451 180.333 65.567C180.333 68.607 179.611 71.324 178.167 73.718C176.723 76.074 174.728 77.936 172.182 79.304C169.636 80.672 166.748 81.356 163.518 81.356ZM163.518 74.06C165 74.06 166.33 73.718 167.508 73.034C168.686 72.35 169.617 71.381 170.301 70.127C170.985 68.835 171.327 67.315 171.327 65.567C171.327 63.781 170.985 62.261 170.301 61.007C169.617 59.753 168.686 58.784 167.508 58.1C166.33 57.416 165 57.074 163.518 57.074C162.036 57.074 160.706 57.416 159.528 58.1C158.35 58.784 157.4 59.753 156.678 61.007C155.994 62.261 155.652 63.781 155.652 65.567C155.652 67.315 155.994 68.835 156.678 70.127C157.4 71.381 158.35 72.35 159.528 73.034C160.706 73.718 162.036 74.06 163.518 74.06Z" fill="#F7F7F7"/>
<path d="M204.915 49.778C207.347 49.778 209.513 50.272 211.413 51.26C213.351 52.21 214.871 53.692 215.973 55.706C217.075 57.682 217.626 60.228 217.626 63.344V80.9H208.734V64.712C208.734 62.242 208.183 60.418 207.081 59.24C206.017 58.062 204.497 57.473 202.521 57.473C201.115 57.473 199.842 57.777 198.702 58.385C197.6 58.955 196.726 59.848 196.08 61.064C195.472 62.28 195.168 63.838 195.168 65.738V80.9H186.276V50.234H194.769V58.727L193.173 56.162C194.275 54.11 195.852 52.533 197.904 51.431C199.956 50.329 202.293 49.778 204.915 49.778Z" fill="#F7F7F7"/>
<path d="M44.8 111.44C43.24 111.44 41.74 111.19 40.3 110.69C38.88 110.17 37.78 109.51 37 108.71L37.87 107C38.61 107.72 39.6 108.33 40.84 108.83C42.1 109.31 43.42 109.55 44.8 109.55C46.12 109.55 47.19 109.39 48.01 109.07C48.85 108.73 49.46 108.28 49.84 107.72C50.24 107.16 50.44 106.54 50.44 105.86C50.44 105.04 50.2 104.38 49.72 103.88C49.26 103.38 48.65 102.99 47.89 102.71C47.13 102.41 46.29 102.15 45.37 101.93C44.45 101.71 43.53 101.48 42.61 101.24C41.69 100.98 40.84 100.64 40.06 100.22C39.3 99.8 38.68 99.25 38.2 98.57C37.74 97.87 37.51 96.96 37.51 95.84C37.51 94.8 37.78 93.85 38.32 92.99C38.88 92.11 39.73 91.41 40.87 90.89C42.01 90.35 43.47 90.08 45.25 90.08C46.43 90.08 47.6 90.25 48.76 90.59C49.92 90.91 50.92 91.36 51.76 91.94L51.01 93.71C50.11 93.11 49.15 92.67 48.13 92.39C47.13 92.11 46.16 91.97 45.22 91.97C43.96 91.97 42.92 92.14 42.1 92.48C41.28 92.82 40.67 93.28 40.27 93.86C39.89 94.42 39.7 95.06 39.7 95.78C39.7 96.6 39.93 97.26 40.39 97.76C40.87 98.26 41.49 98.65 42.25 98.93C43.03 99.21 43.88 99.46 44.8 99.68C45.72 99.9 46.63 100.14 47.53 100.4C48.45 100.66 49.29 101 50.05 101.42C50.83 101.82 51.45 102.36 51.91 103.04C52.39 103.72 52.63 104.61 52.63 105.71C52.63 106.73 52.35 107.68 51.79 108.56C51.23 109.42 50.37 110.12 49.21 110.66C48.07 111.18 46.6 111.44 44.8 111.44Z" fill="#19A727"/>
<path d="M61.997 111.41C60.517 111.41 59.377 111.01 58.577 110.21C57.777 109.41 57.377 108.28 57.377 106.82V92.03H59.507V106.7C59.507 107.62 59.737 108.33 60.197 108.83C60.677 109.33 61.357 109.58 62.237 109.58C63.177 109.58 63.957 109.31 64.577 108.77L65.327 110.3C64.907 110.68 64.397 110.96 63.797 111.14C63.217 111.32 62.617 111.41 61.997 111.41ZM54.557 97.28V95.51H64.307V97.28H54.557Z" fill="#19A727"/>
<path d="M75.7145 111.41C74.3745 111.41 73.2045 111.16 72.2045 110.66C71.2045 110.16 70.4245 109.41 69.8645 108.41C69.3245 107.41 69.0545 106.16 69.0545 104.66V95.51H71.1845V104.42C71.1845 106.1 71.5945 107.37 72.4145 108.23C73.2545 109.07 74.4245 109.49 75.9245 109.49C77.0245 109.49 77.9745 109.27 78.7745 108.83C79.5945 108.37 80.2145 107.71 80.6345 106.85C81.0745 105.99 81.2945 104.96 81.2945 103.76V95.51H83.4245V111.26H81.3845V106.94L81.7145 107.72C81.2145 108.88 80.4345 109.79 79.3745 110.45C78.3345 111.09 77.1145 111.41 75.7145 111.41Z" fill="#19A727"/>
<path d="M95.6308 111.41C94.1308 111.41 92.7808 111.07 91.5808 110.39C90.4008 109.71 89.4708 108.77 88.7908 107.57C88.1108 106.35 87.7708 104.95 87.7708 103.37C87.7708 101.77 88.1108 100.37 88.7908 99.17C89.4708 97.97 90.4008 97.04 91.5808 96.38C92.7808 95.7 94.1308 95.36 95.6308 95.36C97.0108 95.36 98.2408 95.67 99.3208 96.29C100.421 96.91 101.291 97.82 101.931 99.02C102.591 100.2 102.921 101.65 102.921 103.37C102.921 105.07 102.601 106.52 101.961 107.72C101.321 108.92 100.451 109.84 99.3508 110.48C98.2708 111.1 97.0308 111.41 95.6308 111.41ZM95.7808 109.52C96.9008 109.52 97.9008 109.27 98.7808 108.77C99.6808 108.25 100.381 107.53 100.881 106.61C101.401 105.67 101.661 104.59 101.661 103.37C101.661 102.13 101.401 101.05 100.881 100.13C100.381 99.21 99.6808 98.5 98.7808 98C97.9008 97.48 96.9008 97.22 95.7808 97.22C94.6808 97.22 93.6908 97.48 92.8108 98C91.9308 98.5 91.2308 99.21 90.7108 100.13C90.1908 101.05 89.9308 102.13 89.9308 103.37C89.9308 104.59 90.1908 105.67 90.7108 106.61C91.2308 107.53 91.9308 108.25 92.8108 108.77C93.6908 109.27 94.6808 109.52 95.7808 109.52ZM101.721 111.26V106.52L101.931 103.34L101.631 100.16V89H103.761V111.26H101.721Z" fill="#19A727"/>
<path d="M109.693 111.26V95.51H111.823V111.26H109.693ZM110.773 92.03C110.333 92.03 109.963 91.88 109.663 91.58C109.363 91.28 109.213 90.92 109.213 90.5C109.213 90.08 109.363 89.73 109.663 89.45C109.963 89.15 110.333 89 110.773 89C111.213 89 111.583 89.14 111.883 89.42C112.183 89.7 112.333 90.05 112.333 90.47C112.333 90.91 112.183 91.28 111.883 91.58C111.603 91.88 111.233 92.03 110.773 92.03Z" fill="#19A727"/>
<path d="M124.169 111.41C122.649 111.41 121.279 111.07 120.059 110.39C118.859 109.69 117.909 108.74 117.209 107.54C116.509 106.32 116.159 104.93 116.159 103.37C116.159 101.79 116.509 100.4 117.209 99.2C117.909 98 118.859 97.06 120.059 96.38C121.259 95.7 122.629 95.36 124.169 95.36C125.729 95.36 127.109 95.7 128.309 96.38C129.529 97.06 130.479 98 131.159 99.2C131.859 100.4 132.209 101.79 132.209 103.37C132.209 104.93 131.859 106.32 131.159 107.54C130.479 108.74 129.529 109.69 128.309 110.39C127.089 111.07 125.709 111.41 124.169 111.41ZM124.169 109.52C125.309 109.52 126.319 109.27 127.199 108.77C128.079 108.25 128.769 107.53 129.269 106.61C129.789 105.67 130.049 104.59 130.049 103.37C130.049 102.13 129.789 101.05 129.269 100.13C128.769 99.21 128.079 98.5 127.199 98C126.319 97.48 125.319 97.22 124.199 97.22C123.079 97.22 122.079 97.48 121.199 98C120.319 98.5 119.619 99.21 119.099 100.13C118.579 101.05 118.319 102.13 118.319 103.37C118.319 104.59 118.579 105.67 119.099 106.61C119.619 107.53 120.319 108.25 121.199 108.77C122.079 109.27 123.069 109.52 124.169 109.52Z" fill="#19A727"/>
<path d="M26.0469 363.201C27.0063 363.433 27.5492 364.049 27.6756 365.05C27.785 365.919 27.2731 366.871 26.4262 367.198C26.1772 367.295 25.872 367.341 25.5106 367.339C23.6655 367.327 21.843 367.326 20.0429 367.336C20.0317 367.336 20.0211 367.331 20.0132 367.323C20.0054 367.315 20.001 367.305 20.001 367.294L20.0068 359.071C20.0068 359.065 20.0081 359.058 20.0105 359.052C20.013 359.047 20.0166 359.041 20.0211 359.037C20.0256 359.032 20.031 359.028 20.037 359.026C20.0429 359.024 20.0492 359.022 20.0557 359.022C21.9496 359.026 23.8083 359.026 25.6316 359.022C28.1293 359.018 28.4434 362.619 26.0469 363.158C25.9864 363.172 25.9864 363.186 26.0469 363.201Z" fill="white"/>
<path d="M37.9227 359.034L36.9455 359.027C34.7983 359.012 33.0455 360.741 33.0305 362.888L33.0253 363.632C33.0103 365.78 34.7388 367.532 36.886 367.547L37.8632 367.554C40.0104 367.569 41.7632 365.841 41.7782 363.693L41.7834 362.949C41.7984 360.802 40.0699 359.049 37.9227 359.034Z" fill="white"/>
<path d="M31.9834 359.071H28.7539C28.7141 359.071 28.6818 359.103 28.6818 359.143V376.798C28.6818 376.838 28.7141 376.871 28.7539 376.871H31.9834C32.0232 376.871 32.0555 376.838 32.0555 376.798V359.143C32.0555 359.103 32.0232 359.071 31.9834 359.071Z" fill="white"/>
<path d="M26.0611 372.715C25.9843 372.726 25.9831 372.741 26.0576 372.76C26.7339 372.933 27.205 373.295 27.4711 373.848C27.9829 374.915 27.5595 376.202 26.4694 376.669C26.2282 376.772 25.9277 376.823 25.5678 376.822C23.6553 376.812 21.8218 376.81 20.0675 376.818C20.0587 376.818 20.0499 376.817 20.0417 376.814C20.0336 376.81 20.0261 376.806 20.0198 376.8C20.0135 376.793 20.0086 376.786 20.0052 376.778C20.0017 376.77 20 376.762 20 376.753L20.0047 368.71C20.0047 368.702 20.0077 368.695 20.0132 368.689C20.0186 368.684 20.026 368.681 20.0337 368.681C21.8726 368.681 23.7735 368.681 25.7365 368.682C27.2512 368.682 28.0388 370.258 27.5176 371.549C27.2768 372.144 26.7009 372.623 26.0611 372.715Z" fill="white"/>
<path d="M35.6775 371.545L33.6766 371.546C33.6661 371.546 33.656 371.542 33.6486 371.534C33.6412 371.527 33.637 371.517 33.637 371.506V368.72C33.637 368.71 33.6412 368.7 33.6486 368.692C33.656 368.685 33.6661 368.681 33.6766 368.681H41.1418C41.1523 368.681 41.1624 368.685 41.1698 368.692C41.1772 368.7 41.1814 368.71 41.1814 368.72V371.505C41.1814 371.516 41.1772 371.526 41.1698 371.533C41.1624 371.541 41.1523 371.545 41.1418 371.545L39.0815 371.546C39.071 371.546 39.061 371.55 39.0536 371.557C39.0461 371.565 39.042 371.575 39.042 371.585V376.775C39.042 376.786 39.0378 376.796 39.0304 376.803C39.023 376.811 39.0129 376.815 39.0024 376.815H35.7578C35.7473 376.815 35.7373 376.811 35.7299 376.803C35.7224 376.796 35.7183 376.786 35.7183 376.775L35.7171 371.584C35.7171 371.574 35.7129 371.564 35.7055 371.556C35.6981 371.549 35.688 371.545 35.6775 371.545Z" fill="white"/>
<rect y="153" width="700" height="186" fill="#242424"/>
<path d="M37 293.376V198.176H82.832C91.7173 198.176 99.3787 199.627 105.816 202.528C112.344 205.429 117.376 209.6 120.912 215.04C124.448 220.389 126.216 226.736 126.216 234.08C126.216 241.424 124.448 247.771 120.912 253.12C117.376 258.379 112.344 262.413 105.816 265.224C99.3787 268.035 91.7173 269.44 82.832 269.44H54.816L69.096 256.248V293.376H37ZM93.984 293.376L70.592 258.696H104.592L128.256 293.376H93.984ZM69.096 259.784L54.816 245.232H80.792C85.2347 245.232 88.4987 244.235 90.584 242.24C92.76 240.245 93.848 237.525 93.848 234.08C93.848 230.635 92.76 227.915 90.584 225.92C88.4987 223.925 85.2347 222.928 80.792 222.928H54.816L69.096 208.376V259.784Z" fill="#2A2A2A"/>
<path d="M188.248 295.552C180.541 295.552 173.379 294.328 166.76 291.88C160.232 289.432 154.565 285.987 149.76 281.544C144.955 277.011 141.192 271.707 138.472 265.632C135.843 259.557 134.528 252.939 134.528 245.776C134.528 238.523 135.843 231.904 138.472 225.92C141.192 219.845 144.955 214.587 149.76 210.144C154.565 205.611 160.232 202.12 166.76 199.672C173.379 197.224 180.541 196 188.248 196C196.045 196 203.208 197.224 209.736 199.672C216.264 202.12 221.931 205.611 226.736 210.144C231.541 214.587 235.259 219.845 237.888 225.92C240.608 231.904 241.968 238.523 241.968 245.776C241.968 252.939 240.608 259.557 237.888 265.632C235.259 271.707 231.541 277.011 226.736 281.544C221.931 285.987 216.264 289.432 209.736 291.88C203.208 294.328 196.045 295.552 188.248 295.552ZM188.248 269.576C191.24 269.576 194.005 269.032 196.544 267.944C199.173 266.856 201.44 265.315 203.344 263.32C205.339 261.235 206.88 258.741 207.968 255.84C209.056 252.848 209.6 249.493 209.6 245.776C209.6 242.059 209.056 238.749 207.968 235.848C206.88 232.856 205.339 230.363 203.344 228.368C201.44 226.283 199.173 224.696 196.544 223.608C194.005 222.52 191.24 221.976 188.248 221.976C185.256 221.976 182.445 222.52 179.816 223.608C177.277 224.696 175.011 226.283 173.016 228.368C171.112 230.363 169.616 232.856 168.528 235.848C167.44 238.749 166.896 242.059 166.896 245.776C166.896 249.493 167.44 252.848 168.528 255.84C169.616 258.741 171.112 261.235 173.016 263.32C175.011 265.315 177.277 266.856 179.816 267.944C182.445 269.032 185.256 269.576 188.248 269.576Z" fill="#2A2A2A"/>
<path d="M302.849 295.552C295.233 295.552 288.161 294.373 281.633 292.016C275.196 289.568 269.575 286.123 264.769 281.68C260.055 277.237 256.383 271.979 253.753 265.904C251.124 259.829 249.809 253.12 249.809 245.776C249.809 238.432 251.124 231.723 253.753 225.648C256.383 219.573 260.055 214.315 264.769 209.872C269.575 205.429 275.196 202.029 281.633 199.672C288.161 197.224 295.233 196 302.849 196C312.188 196 320.439 197.632 327.601 200.896C334.855 204.16 340.839 208.875 345.553 215.04L325.289 233.128C322.479 229.592 319.351 226.872 315.905 224.968C312.551 222.973 308.743 221.976 304.481 221.976C301.127 221.976 298.089 222.52 295.369 223.608C292.649 224.696 290.292 226.283 288.297 228.368C286.393 230.453 284.897 232.992 283.809 235.984C282.721 238.885 282.177 242.149 282.177 245.776C282.177 249.403 282.721 252.712 283.809 255.704C284.897 258.605 286.393 261.099 288.297 263.184C290.292 265.269 292.649 266.856 295.369 267.944C298.089 269.032 301.127 269.576 304.481 269.576C308.743 269.576 312.551 268.624 315.905 266.72C319.351 264.725 322.479 261.96 325.289 258.424L345.553 276.512C340.839 282.587 334.855 287.301 327.601 290.656C320.439 293.92 312.188 295.552 302.849 295.552Z" fill="#2A2A2A"/>
<path d="M402.74 295.552C395.033 295.552 387.871 294.328 381.252 291.88C374.724 289.432 369.057 285.987 364.252 281.544C359.447 277.011 355.684 271.707 352.964 265.632C350.335 259.557 349.02 252.939 349.02 245.776C349.02 238.523 350.335 231.904 352.964 225.92C355.684 219.845 359.447 214.587 364.252 210.144C369.057 205.611 374.724 202.12 381.252 199.672C387.871 197.224 395.033 196 402.74 196C410.537 196 417.7 197.224 424.228 199.672C430.756 202.12 436.423 205.611 441.228 210.144C446.033 214.587 449.751 219.845 452.38 225.92C455.1 231.904 456.46 238.523 456.46 245.776C456.46 252.939 455.1 259.557 452.38 265.632C449.751 271.707 446.033 277.011 441.228 281.544C436.423 285.987 430.756 289.432 424.228 291.88C417.7 294.328 410.537 295.552 402.74 295.552ZM402.74 269.576C405.732 269.576 408.497 269.032 411.036 267.944C413.665 266.856 415.932 265.315 417.836 263.32C419.831 261.235 421.372 258.741 422.46 255.84C423.548 252.848 424.092 249.493 424.092 245.776C424.092 242.059 423.548 238.749 422.46 235.848C421.372 232.856 419.831 230.363 417.836 228.368C415.932 226.283 413.665 224.696 411.036 223.608C408.497 222.52 405.732 221.976 402.74 221.976C399.748 221.976 396.937 222.52 394.308 223.608C391.769 224.696 389.503 226.283 387.508 228.368C385.604 230.363 384.108 232.856 383.02 235.848C381.932 238.749 381.388 242.059 381.388 245.776C381.388 249.493 381.932 252.848 383.02 255.84C384.108 258.741 385.604 261.235 387.508 263.32C389.503 265.315 391.769 266.856 394.308 267.944C396.937 269.032 399.748 269.576 402.74 269.576Z" fill="#2A2A2A"/>
<path d="M468.109 293.376V198.176H494.493L542.909 256.112H530.669V198.176H561.949V293.376H535.565L487.149 235.44H499.389V293.376H468.109Z" fill="#2A2A2A"/>
</svg>
