<svg width="38" height="70" viewBox="0 0 38 70" fill="none" xmlns="http://www.w3.org/2000/svg">
<path fill-rule="evenodd" clip-rule="evenodd" d="M10.0566 64.5023C13.0996 64.2371 16.0893 63.5077 18.9208 62.3348C22.5556 60.8292 25.8584 58.6224 28.6404 55.8404C31.4224 53.0584 33.6292 49.7556 35.1348 46.1208C36.6404 42.4859 37.4154 38.5901 37.4154 34.6557C37.4154 30.7213 36.6404 26.8255 35.1348 23.1906C33.6292 19.5558 31.4224 16.253 28.6404 13.471C25.8584 10.689 22.5556 8.48218 18.9208 6.97656C16.1053 5.81035 13.1332 5.08253 10.108 4.81365C9.69228 3.08067 8.80819 1.43713 7.45569 0.0846316L0.384624 7.1557L7.45569 14.2268C8.71705 12.9654 9.571 11.4509 10.0175 9.84681C12.4138 10.0943 14.7662 10.6881 17.0001 11.6134C20.0261 12.8668 22.7755 14.7039 25.0915 17.0199C27.4075 19.3359 29.2446 22.0853 30.498 25.1113C31.7514 28.1372 32.3965 31.3804 32.3965 34.6557C32.3965 37.931 31.7514 41.1742 30.498 44.2001C29.2446 47.2261 27.4075 49.9756 25.0915 52.2915C22.7755 54.6075 20.0261 56.4446 17.0001 57.698C14.7823 58.6166 12.4479 59.2085 10.0696 59.4592C9.63924 57.7831 8.76794 56.1969 7.45569 54.8846L0.384621 61.9557L7.45569 69.0268C8.75487 67.7276 9.62185 66.1599 10.0566 64.5023Z" fill="#D9D9D9"/>
</svg>
